<?xml version="1.0" standalone="no"?>
<!DOCTYPE svg PUBLIC "-//W3C//DTD SVG 20010904//EN"
 "http://www.w3.org/TR/2001/REC-SVG-20010904/DTD/svg10.dtd">
<svg version="1.0" xmlns="http://www.w3.org/2000/svg"
 width="1900.000000pt" height="1900.000000pt" viewBox="0 0 1900.000000 1900.000000"
 preserveAspectRatio="xMidYMid meet">
<metadata>
Created by potrace 1.14, written by Peter Selinger 2001-2017
</metadata>
<g transform="translate(0.000000,1900.000000) scale(0.100000,-0.100000)"
fill="#000000" stroke="none">
<path d="M5 18031 c-3 -5 -1 -12 5 -16 6 -4 7 -12 1 -24 -6 -10 -6 -23 -1 -31
5 -8 5 -21 0 -30 -6 -11 -5 -21 1 -27 8 -8 7 -13 0 -17 -6 -4 -11 -12 -11 -17
0 -6 4 -7 10 -4 5 3 10 1 10 -4 0 -6 -4 -11 -10 -11 -5 0 -10 -5 -10 -11 0 -5
6 -7 13 -3 10 6 10 4 0 -7 -15 -16 -17 -33 -3 -24 6 3 10 1 10 -4 0 -6 -3 -11
-7 -11 -5 0 -8 -18 -9 -40 0 -25 3 -37 10 -33 6 3 5 0 -2 -8 -14 -16 -16 -33
-2 -24 5 3 10 1 10 -4 0 -6 -3 -11 -7 -11 -5 0 -8 -18 -9 -40 0 -25 3 -37 10
-33 6 3 5 0 -2 -8 -14 -16 -16 -33 -2 -24 6 3 10 1 10 -4 0 -6 -3 -11 -7 -11
-5 0 -8 -18 -9 -40 0 -25 3 -37 10 -33 6 3 5 0 -2 -8 -14 -16 -16 -33 -2 -24
5 3 10 1 10 -4 0 -6 -3 -11 -7 -11 -5 0 -8 -18 -9 -40 0 -25 3 -37 10 -33 6 3
5 0 -1 -8 -15 -16 -17 -33 -3 -24 5 3 10 1 10 -4 0 -6 -3 -11 -7 -11 -5 0 -8
-18 -9 -40 0 -25 3 -37 10 -33 6 3 5 0 -2 -8 -14 -16 -16 -33 -2 -24 5 3 10 1
10 -4 0 -6 -3 -11 -7 -11 -5 0 -8 -18 -9 -40 0 -25 3 -37 10 -33 6 3 5 0 -1
-8 -15 -16 -17 -33 -3 -24 5 3 10 1 10 -4 0 -6 -3 -11 -7 -11 -5 0 -8 -18 -9
-40 0 -25 3 -37 10 -33 6 3 5 0 -2 -8 -14 -16 -16 -33 -2 -24 5 3 10 1 10 -4
0 -6 -3 -11 -7 -11 -5 0 -8 -18 -9 -40 0 -25 3 -37 10 -33 6 3 5 0 -2 -8 -14
-16 -16 -33 -2 -24 5 3 10 1 10 -4 0 -6 -3 -11 -7 -11 -5 0 -8 -18 -9 -40 0
-25 3 -37 10 -33 6 3 5 0 -2 -8 -14 -16 -16 -33 -2 -24 6 3 10 1 10 -4 0 -6
-3 -11 -7 -11 -5 0 -8 -18 -9 -40 0 -25 3 -37 10 -33 6 3 5 0 -2 -8 -14 -16
-16 -33 -2 -24 6 3 10 1 10 -4 0 -6 -3 -11 -7 -11 -5 0 -8 -18 -9 -40 0 -25 3
-37 10 -33 6 3 5 0 -1 -8 -15 -16 -17 -33 -3 -24 5 3 10 1 10 -4 0 -6 -3 -11
-7 -11 -5 0 -8 -18 -9 -40 0 -25 3 -37 10 -33 6 3 5 0 -1 -8 -15 -16 -17 -33
-3 -24 5 3 10 1 10 -4 0 -6 -3 -11 -7 -11 -5 0 -8 -18 -9 -40 0 -25 3 -37 10
-33 6 3 5 0 -1 -8 -15 -16 -17 -33 -3 -24 5 3 10 1 10 -4 0 -6 -3 -11 -7 -11
-5 0 -8 -18 -9 -40 0 -25 3 -37 10 -33 6 3 5 0 -1 -8 -15 -16 -17 -33 -3 -24
5 3 10 1 10 -4 0 -6 -3 -11 -7 -11 -5 0 -8 -18 -9 -40 0 -25 3 -37 10 -33 6 3
5 0 -2 -8 -14 -16 -16 -33 -2 -24 6 3 10 1 10 -4 0 -6 -3 -11 -7 -11 -5 0 -8
-18 -9 -40 0 -25 3 -37 10 -33 6 3 5 0 -1 -8 -15 -16 -17 -33 -3 -24 5 3 10 1
10 -4 0 -6 -3 -11 -7 -11 -5 0 -8 -18 -9 -40 0 -25 3 -37 10 -33 6 3 5 0 -2
-8 -14 -16 -16 -33 -2 -24 6 3 10 1 10 -4 0 -6 -3 -11 -7 -11 -5 0 -8 -18 -9
-40 0 -25 3 -37 10 -33 6 3 5 0 -1 -8 -15 -16 -17 -33 -3 -24 6 3 10 1 10 -4
0 -6 -3 -11 -7 -11 -5 0 -8 -18 -9 -40 0 -25 3 -37 10 -33 6 3 5 0 -2 -8 -14
-16 -16 -33 -2 -24 6 3 10 1 10 -4 0 -6 -3 -11 -7 -11 -5 0 -8 -18 -9 -40 0
-25 3 -37 10 -33 6 3 5 0 -2 -8 -14 -16 -16 -33 -2 -24 5 3 10 1 10 -4 0 -6
-3 -11 -7 -11 -5 0 -8 -18 -9 -40 0 -25 3 -37 10 -33 6 3 5 0 -1 -8 -15 -16
-17 -33 -3 -24 5 3 10 1 10 -4 0 -6 -3 -11 -7 -11 -5 0 -8 -18 -9 -40 0 -25 3
-37 10 -33 6 3 5 0 -2 -8 -14 -16 -16 -33 -2 -24 5 3 10 1 10 -4 0 -6 -3 -11
-7 -11 -5 0 -8 -18 -9 -40 0 -25 3 -37 10 -33 6 3 5 0 -1 -8 -15 -16 -17 -33
-3 -24 6 3 10 1 10 -4 0 -6 -3 -11 -7 -11 -5 0 -8 -18 -9 -40 0 -25 3 -37 10
-33 6 3 5 0 -1 -8 -15 -16 -17 -33 -3 -24 6 3 10 1 10 -4 0 -6 -3 -11 -7 -11
-5 0 -8 -18 -9 -40 0 -25 3 -37 10 -33 6 3 5 0 -1 -8 -15 -16 -17 -33 -3 -24
5 3 10 1 10 -4 0 -6 -3 -11 -7 -11 -5 0 -8 -18 -9 -40 0 -25 3 -37 10 -33 6 3
5 0 -2 -8 -14 -16 -16 -33 -2 -24 6 3 10 1 10 -4 0 -6 -3 -11 -7 -11 -5 0 -8
-18 -9 -40 0 -25 3 -37 10 -33 6 3 5 0 -2 -8 -14 -16 -16 -33 -2 -24 5 3 10 1
10 -4 0 -6 -3 -11 -7 -11 -5 0 -8 -18 -9 -40 0 -25 3 -37 10 -33 6 3 5 0 -2
-8 -14 -16 -16 -33 -2 -24 5 3 10 1 10 -4 0 -6 -3 -11 -7 -11 -5 0 -8 -18 -9
-40 0 -25 3 -37 10 -33 6 3 5 0 -2 -8 -14 -16 -16 -33 -2 -24 5 3 10 1 10 -4
0 -6 -3 -11 -7 -11 -5 0 -8 -18 -9 -40 0 -25 3 -37 10 -33 6 3 5 0 -2 -8 -14
-16 -16 -33 -2 -24 5 3 10 1 10 -4 0 -6 -3 -11 -7 -11 -5 0 -8 -18 -9 -40 0
-25 3 -37 10 -33 6 3 5 0 -1 -8 -15 -16 -17 -33 -3 -24 6 3 10 1 10 -4 0 -6
-3 -11 -7 -11 -5 0 -8 -18 -9 -40 0 -25 3 -37 10 -33 6 3 5 0 -2 -8 -14 -16
-16 -33 -2 -24 5 3 10 1 10 -4 0 -6 -3 -11 -7 -11 -5 0 -8 -18 -9 -40 0 -25 3
-37 10 -33 6 3 5 0 -2 -8 -14 -16 -16 -33 -2 -24 5 3 10 1 10 -4 0 -6 -3 -11
-7 -11 -5 0 -8 -18 -9 -40 0 -25 3 -37 10 -33 6 3 5 0 -2 -8 -14 -16 -16 -33
-2 -24 6 3 10 1 10 -4 0 -6 -3 -11 -7 -11 -5 0 -8 -18 -9 -40 0 -25 3 -37 10
-33 6 3 5 0 -2 -8 -14 -16 -16 -33 -2 -24 5 3 10 1 10 -4 0 -6 -3 -11 -7 -11
-5 0 -8 -18 -9 -40 0 -25 3 -37 10 -33 6 3 5 0 -2 -8 -14 -16 -16 -33 -2 -24
5 3 10 1 10 -4 0 -6 -3 -11 -7 -11 -5 0 -8 -18 -9 -40 0 -25 3 -37 10 -33 6 3
5 0 -2 -8 -14 -16 -16 -33 -2 -24 5 3 10 1 10 -4 0 -6 -3 -11 -7 -11 -5 0 -8
-18 -9 -40 0 -25 3 -37 10 -33 6 3 5 0 -2 -8 -14 -16 -16 -33 -2 -24 5 3 10 1
10 -4 0 -6 -3 -11 -7 -11 -5 0 -8 -18 -9 -40 0 -25 3 -37 10 -33 6 3 5 0 -2
-8 -14 -16 -16 -33 -2 -24 5 3 10 1 10 -4 0 -6 -3 -11 -7 -11 -5 0 -8 -18 -9
-40 0 -25 3 -37 10 -33 6 3 5 0 -1 -8 -15 -16 -17 -33 -3 -24 5 3 10 1 10 -4
0 -6 -3 -11 -7 -11 -5 0 -8 -18 -9 -40 0 -25 3 -37 10 -33 6 3 5 0 -1 -8 -15
-16 -17 -33 -3 -24 6 3 10 1 10 -4 0 -6 -3 -11 -7 -11 -5 0 -8 -18 -9 -40 0
-25 3 -37 10 -33 6 3 5 0 -2 -8 -14 -16 -16 -33 -2 -24 5 3 10 1 10 -4 0 -6
-3 -11 -7 -11 -5 0 -8 -18 -9 -40 0 -25 3 -37 10 -33 6 3 5 0 -2 -8 -14 -16
-16 -33 -2 -24 5 3 10 1 10 -4 0 -6 -3 -11 -7 -11 -5 0 -8 -18 -9 -40 0 -25 3
-37 10 -33 6 3 5 0 -2 -8 -14 -16 -16 -33 -2 -24 5 3 10 1 10 -4 0 -6 -3 -11
-7 -11 -5 0 -8 -18 -9 -40 0 -25 3 -37 10 -33 6 3 5 0 -2 -8 -14 -16 -16 -33
-2 -24 5 3 10 1 10 -4 0 -6 -3 -11 -7 -11 -5 0 -8 -18 -9 -40 0 -25 3 -37 10
-33 6 3 5 0 -2 -8 -14 -16 -16 -33 -2 -24 6 3 10 1 10 -4 0 -6 -3 -11 -7 -11
-5 0 -8 -18 -9 -40 0 -25 3 -37 10 -33 6 3 5 0 -2 -8 -14 -16 -16 -33 -2 -24
5 3 10 1 10 -4 0 -6 -3 -11 -7 -11 -5 0 -8 -18 -9 -40 0 -25 3 -37 10 -33 6 3
5 0 -1 -8 -15 -16 -17 -33 -3 -24 6 3 10 1 10 -4 0 -6 -3 -11 -7 -11 -5 0 -8
-18 -9 -40 0 -25 3 -37 10 -33 6 3 5 0 -1 -8 -15 -16 -17 -33 -3 -24 5 3 10 1
10 -4 0 -6 -3 -11 -7 -11 -5 0 -8 -18 -9 -40 0 -25 3 -37 10 -33 6 3 5 0 -1
-8 -15 -16 -17 -33 -3 -24 6 3 10 1 10 -4 0 -6 -3 -11 -7 -11 -5 0 -8 -18 -9
-40 0 -25 3 -37 10 -33 6 3 5 0 -1 -8 -15 -16 -17 -33 -3 -24 5 3 10 1 10 -4
0 -6 -3 -11 -7 -11 -5 0 -8 -18 -9 -40 0 -25 3 -37 10 -33 6 3 5 0 -1 -8 -15
-16 -17 -33 -3 -24 5 3 10 1 10 -4 0 -6 -3 -11 -7 -11 -5 0 -8 -18 -9 -40 0
-25 3 -37 10 -33 6 3 5 0 -2 -8 -14 -16 -16 -33 -2 -24 5 3 10 1 10 -4 0 -6
-3 -11 -7 -11 -5 0 -8 -18 -9 -40 0 -25 3 -37 10 -33 6 3 5 0 -1 -8 -15 -16
-17 -33 -3 -24 5 3 10 1 10 -4 0 -6 -3 -11 -7 -11 -5 0 -8 -18 -9 -40 0 -25 3
-37 10 -33 6 3 5 0 -2 -8 -14 -16 -16 -33 -2 -24 5 3 10 1 10 -4 0 -6 -3 -11
-7 -11 -5 0 -8 -18 -9 -40 0 -25 3 -37 10 -33 6 3 5 0 -2 -8 -14 -16 -16 -33
-2 -24 5 3 10 1 10 -4 0 -6 -3 -11 -7 -11 -5 0 -8 -18 -9 -40 0 -25 3 -37 10
-33 6 3 5 0 -1 -8 -15 -16 -17 -33 -3 -24 6 3 10 1 10 -4 0 -6 -3 -11 -7 -11
-5 0 -8 -18 -9 -40 0 -25 3 -37 10 -33 6 3 5 0 -2 -8 -14 -16 -16 -33 -2 -24
5 3 10 1 10 -4 0 -6 -3 -11 -7 -11 -5 0 -8 -18 -9 -40 0 -25 3 -37 10 -33 6 3
5 0 -2 -8 -14 -16 -16 -33 -2 -24 5 3 10 1 10 -4 0 -6 -3 -11 -7 -11 -5 0 -8
-18 -9 -40 0 -25 3 -37 10 -33 6 3 5 0 -2 -8 -14 -16 -16 -33 -2 -24 5 3 10 1
10 -4 0 -6 -3 -11 -7 -11 -5 0 -8 -18 -9 -40 0 -25 3 -37 10 -33 6 3 5 0 -2
-8 -14 -16 -16 -33 -2 -24 5 3 10 1 10 -4 0 -6 -3 -11 -7 -11 -5 0 -8 -18 -9
-40 0 -25 3 -37 10 -33 6 3 5 0 -1 -8 -15 -16 -17 -33 -3 -24 5 3 10 1 10 -4
0 -6 -3 -11 -7 -11 -5 0 -8 -18 -9 -40 0 -25 3 -37 10 -33 6 3 5 0 -1 -8 -15
-16 -17 -33 -3 -24 5 3 10 1 10 -4 0 -6 -3 -11 -7 -11 -5 0 -8 -18 -9 -40 0
-25 3 -37 10 -33 6 3 5 0 -2 -8 -14 -16 -16 -33 -2 -24 5 3 10 1 10 -4 0 -6
-3 -11 -7 -11 -5 0 -8 -18 -9 -40 0 -25 3 -37 10 -33 6 3 5 0 -2 -8 -14 -16
-16 -33 -2 -24 6 3 10 1 10 -4 0 -6 -3 -11 -7 -11 -5 0 -8 -18 -9 -40 0 -25 3
-37 10 -33 6 3 5 0 -2 -8 -14 -16 -16 -33 -2 -24 5 3 10 1 10 -4 0 -6 -3 -11
-7 -11 -5 0 -8 -18 -9 -40 0 -25 3 -37 10 -33 6 3 5 0 -1 -8 -15 -16 -17 -33
-3 -24 5 3 10 1 10 -4 0 -6 -3 -11 -7 -11 -5 0 -8 -18 -9 -40 0 -25 3 -37 10
-33 6 3 5 0 -2 -8 -14 -16 -16 -33 -2 -24 5 3 10 1 10 -4 0 -6 -3 -11 -7 -11
-5 0 -8 -18 -9 -40 0 -25 3 -37 10 -33 6 3 5 0 -1 -8 -15 -16 -17 -33 -3 -24
5 3 10 1 10 -4 0 -6 -3 -11 -7 -11 -5 0 -8 -18 -9 -40 0 -25 3 -37 10 -33 6 3
5 0 -1 -8 -15 -16 -17 -33 -3 -24 6 3 10 1 10 -4 0 -6 -3 -11 -7 -11 -5 0 -8
-18 -9 -40 0 -25 3 -37 10 -33 6 3 5 0 -2 -8 -14 -16 -16 -33 -2 -24 6 3 10 1
10 -4 0 -6 -3 -11 -7 -11 -5 0 -8 -18 -9 -40 0 -25 3 -37 10 -33 6 3 5 0 -2
-8 -14 -16 -16 -33 -2 -24 5 3 10 1 10 -4 0 -6 -3 -11 -7 -11 -5 0 -8 -18 -9
-40 0 -25 3 -37 10 -33 6 3 5 0 -1 -8 -15 -16 -17 -33 -3 -24 6 3 10 1 10 -4
0 -6 -3 -11 -7 -11 -5 0 -8 -18 -9 -40 0 -25 3 -37 10 -33 6 3 5 0 -1 -8 -15
-16 -17 -33 -3 -24 6 3 10 1 10 -4 0 -6 -3 -11 -7 -11 -5 0 -8 -18 -9 -40 0
-25 3 -37 10 -33 6 3 5 0 -1 -8 -15 -16 -17 -33 -3 -24 5 3 10 1 10 -4 0 -6
-3 -11 -7 -11 -5 0 -8 -18 -9 -40 0 -25 3 -37 10 -33 6 3 5 0 -1 -8 -15 -16
-17 -33 -3 -24 5 3 10 1 10 -4 0 -6 -3 -11 -7 -11 -5 0 -8 -18 -9 -40 0 -25 3
-37 10 -33 6 3 5 0 -1 -8 -15 -16 -17 -33 -3 -24 5 3 10 1 10 -4 0 -6 -3 -11
-7 -11 -5 0 -8 -18 -9 -40 0 -25 3 -37 10 -33 6 3 5 0 -1 -8 -15 -16 -17 -33
-3 -24 6 3 10 1 10 -4 0 -6 -3 -11 -7 -11 -5 0 -8 -18 -9 -40 0 -25 3 -37 10
-33 6 3 5 0 -2 -8 -14 -16 -16 -33 -2 -24 5 3 10 1 10 -4 0 -6 -3 -11 -7 -11
-5 0 -8 -18 -9 -40 0 -25 3 -37 10 -33 6 3 5 0 -1 -8 -15 -16 -17 -33 -3 -24
6 3 10 1 10 -4 0 -6 -3 -11 -7 -11 -5 0 -8 -18 -9 -40 0 -25 3 -37 10 -33 6 3
5 0 -1 -8 -15 -16 -17 -33 -3 -24 6 3 10 1 10 -4 0 -6 -3 -11 -7 -11 -5 0 -8
-18 -9 -40 0 -25 3 -37 10 -33 6 3 5 0 -1 -8 -15 -16 -17 -33 -3 -24 5 3 10 1
10 -4 0 -6 -3 -11 -7 -11 -5 0 -8 -18 -9 -40 0 -25 3 -37 10 -33 6 3 5 0 -1
-8 -15 -16 -17 -33 -3 -24 5 3 10 1 10 -4 0 -6 -3 -11 -7 -11 -5 0 -8 -18 -9
-40 0 -25 3 -37 10 -33 6 3 5 0 -1 -8 -15 -16 -17 -33 -3 -24 5 3 10 1 10 -4
0 -6 -3 -11 -7 -11 -5 0 -8 -18 -9 -40 0 -25 3 -37 10 -33 6 3 5 0 -1 -8 -15
-16 -17 -33 -3 -24 6 3 10 1 10 -4 0 -6 -3 -11 -7 -11 -5 0 -8 -18 -9 -40 0
-25 3 -37 10 -33 6 3 5 0 -2 -8 -14 -16 -16 -33 -2 -24 5 3 10 1 10 -4 0 -6
-3 -11 -7 -11 -5 0 -8 -18 -9 -40 0 -25 3 -37 10 -33 6 3 5 0 -1 -8 -15 -16
-17 -33 -3 -24 5 3 10 1 10 -4 0 -6 -3 -11 -7 -11 -5 0 -8 -18 -9 -40 0 -25 3
-37 10 -33 6 3 5 0 -1 -8 -15 -16 -17 -33 -3 -24 6 3 10 1 10 -4 0 -6 -3 -11
-7 -11 -5 0 -8 -18 -9 -40 0 -25 3 -37 10 -33 6 3 5 0 -1 -8 -15 -16 -17 -33
-3 -24 5 3 10 1 10 -4 0 -6 -3 -11 -7 -11 -5 0 -8 -18 -9 -40 0 -25 3 -37 10
-33 6 3 5 0 -1 -8 -15 -16 -17 -33 -3 -24 5 3 10 1 10 -4 0 -6 -3 -11 -7 -11
-5 0 -8 -18 -9 -40 0 -25 3 -37 10 -33 6 3 5 0 -2 -8 -14 -16 -16 -33 -2 -24
5 3 10 1 10 -4 0 -6 -3 -11 -7 -11 -5 0 -8 -18 -9 -40 0 -25 3 -37 10 -33 6 3
5 0 -1 -8 -15 -16 -17 -33 -3 -24 6 3 10 1 10 -4 0 -6 -3 -11 -7 -11 -5 0 -8
-18 -9 -40 0 -25 3 -37 10 -33 6 3 5 0 -1 -8 -15 -16 -17 -33 -3 -24 5 3 10 1
10 -4 0 -6 -3 -11 -7 -11 -5 0 -8 -18 -9 -40 0 -25 3 -37 10 -33 6 3 5 0 -1
-8 -15 -16 -17 -33 -3 -24 5 3 10 1 10 -4 0 -6 -3 -11 -7 -11 -5 0 -8 -18 -9
-40 0 -25 3 -37 10 -33 6 3 5 0 -1 -8 -15 -16 -17 -33 -3 -24 5 3 10 1 10 -4
0 -6 -3 -11 -7 -11 -5 0 -8 -18 -9 -40 0 -25 3 -37 10 -33 6 3 5 0 -2 -8 -14
-16 -16 -33 -2 -24 5 3 10 1 10 -4 0 -6 -3 -11 -7 -11 -5 0 -8 -18 -9 -40 0
-25 3 -37 10 -33 6 3 5 0 -1 -8 -15 -16 -17 -33 -3 -24 6 3 10 1 10 -4 0 -6
-3 -11 -7 -11 -5 0 -8 -18 -9 -40 0 -25 3 -37 10 -33 6 3 5 0 -1 -8 -15 -16
-17 -33 -3 -24 6 3 10 1 10 -4 0 -6 -3 -11 -7 -11 -5 0 -8 -18 -9 -40 0 -25 3
-37 10 -33 6 3 5 0 -1 -8 -15 -16 -17 -33 -3 -24 5 3 10 1 10 -4 0 -6 -3 -11
-7 -11 -5 0 -8 -18 -9 -40 0 -25 3 -37 10 -33 6 3 5 0 -2 -8 -14 -16 -16 -33
-2 -24 6 3 10 1 10 -4 0 -6 -3 -11 -7 -11 -5 0 -8 -18 -9 -40 0 -25 3 -37 10
-33 6 3 5 0 -2 -8 -14 -16 -16 -33 -2 -24 5 3 10 1 10 -4 0 -6 -3 -11 -7 -11
-5 0 -8 -18 -9 -40 0 -25 3 -37 10 -33 6 3 5 0 -2 -8 -14 -16 -16 -33 -2 -24
5 3 10 1 10 -4 0 -6 -3 -11 -7 -11 -5 0 -8 -18 -9 -40 0 -25 3 -37 10 -33 6 3
5 0 -1 -8 -15 -16 -17 -33 -3 -24 5 3 10 1 10 -4 0 -6 -3 -11 -7 -11 -5 0 -8
-18 -9 -40 0 -25 3 -37 10 -33 6 3 5 0 -1 -8 -15 -16 -17 -33 -3 -24 5 3 10 1
10 -4 0 -6 -3 -11 -7 -11 -5 0 -8 -18 -9 -40 0 -25 3 -37 10 -33 6 3 5 0 -2
-8 -14 -16 -16 -33 -2 -24 5 3 10 1 10 -4 0 -6 -3 -11 -7 -11 -5 0 -8 -18 -9
-40 0 -25 3 -37 10 -33 6 3 5 0 -2 -8 -14 -16 -16 -33 -2 -24 5 3 10 1 10 -4
0 -6 -3 -11 -7 -11 -5 0 -8 -18 -9 -40 0 -25 3 -37 10 -33 6 3 5 0 -2 -8 -14
-16 -16 -33 -2 -24 5 3 10 1 10 -4 0 -6 -3 -11 -7 -11 -5 0 -8 -18 -9 -40 0
-25 3 -37 10 -33 6 3 5 0 -1 -8 -15 -16 -17 -33 -3 -24 5 3 10 1 10 -4 0 -6
-3 -11 -7 -11 -5 0 -8 -18 -9 -40 0 -25 3 -37 10 -33 6 3 5 0 -1 -8 -15 -16
-17 -33 -3 -24 5 3 10 1 10 -4 0 -6 -3 -11 -7 -11 -5 0 -8 -18 -9 -40 0 -25 3
-37 10 -33 6 3 5 0 -2 -8 -14 -16 -16 -33 -2 -24 5 3 10 1 10 -4 0 -6 -3 -11
-7 -11 -5 0 -8 -18 -9 -40 0 -25 3 -37 10 -33 6 3 5 0 -1 -8 -15 -16 -17 -33
-3 -24 5 3 10 1 10 -4 0 -6 -3 -11 -7 -11 -5 0 -8 -18 -9 -40 0 -25 3 -37 10
-33 6 3 5 0 -2 -8 -14 -16 -16 -33 -2 -24 6 3 10 1 10 -4 0 -6 -3 -11 -7 -11
-5 0 -8 -18 -9 -40 0 -25 3 -37 10 -33 6 3 5 0 -2 -8 -14 -16 -16 -33 -2 -24
5 3 10 1 10 -4 0 -6 -3 -11 -7 -11 -5 0 -8 -18 -9 -40 0 -25 3 -37 10 -33 6 3
5 0 -2 -8 -14 -16 -16 -33 -2 -24 6 3 10 1 10 -4 0 -6 -3 -11 -7 -11 -5 0 -8
-18 -9 -40 0 -25 3 -37 10 -33 6 3 5 0 -2 -8 -14 -16 -16 -33 -2 -24 5 3 10 1
10 -4 0 -6 -3 -11 -7 -11 -5 0 -8 -18 -9 -40 0 -25 3 -37 10 -33 6 3 5 0 -2
-8 -14 -16 -16 -33 -2 -24 5 3 10 1 10 -4 0 -6 -3 -11 -7 -11 -5 0 -8 -18 -9
-40 0 -25 3 -37 10 -33 6 3 5 0 -2 -8 -14 -16 -16 -33 -2 -24 5 3 10 1 10 -4
0 -6 -3 -11 -7 -11 -5 0 -8 -18 -9 -40 0 -25 3 -37 10 -33 6 3 5 0 -2 -8 -14
-16 -16 -33 -2 -24 5 3 10 1 10 -4 0 -6 -3 -11 -7 -11 -5 0 -8 -18 -9 -40 0
-25 3 -37 10 -33 6 3 5 0 -1 -8 -15 -16 -17 -33 -3 -24 5 3 10 1 10 -4 0 -6
-3 -11 -7 -11 -5 0 -8 -18 -9 -40 0 -25 3 -37 10 -33 6 3 5 0 -1 -8 -15 -16
-17 -33 -3 -24 5 3 10 1 10 -4 0 -6 -3 -11 -7 -11 -5 0 -8 -18 -9 -40 0 -25 3
-37 10 -33 6 3 5 0 -2 -8 -14 -16 -16 -33 -2 -24 5 3 10 1 10 -4 0 -6 -3 -11
-7 -11 -5 0 -8 -18 -9 -40 0 -25 3 -37 10 -33 6 3 5 0 -2 -8 -14 -16 -16 -33
-2 -24 5 3 10 1 10 -4 0 -6 -3 -11 -7 -11 -5 0 -8 -18 -9 -40 0 -25 3 -37 10
-33 6 3 5 0 -1 -8 -15 -16 -17 -33 -3 -24 5 3 10 1 10 -4 0 -6 -3 -11 -7 -11
-5 0 -8 -18 -9 -40 0 -25 3 -37 10 -33 6 3 5 0 -1 -8 -15 -16 -17 -33 -3 -24
6 3 10 1 10 -4 0 -6 -3 -11 -7 -11 -5 0 -8 -18 -9 -40 0 -25 3 -37 10 -33 6 3
5 0 -2 -8 -14 -16 -16 -33 -2 -24 5 3 10 1 10 -4 0 -6 -3 -11 -7 -11 -5 0 -8
-18 -9 -40 0 -25 3 -37 10 -33 6 3 5 0 -2 -8 -14 -16 -16 -33 -2 -24 6 3 10 1
10 -4 0 -6 -3 -11 -7 -11 -5 0 -8 -18 -9 -40 0 -25 3 -37 10 -33 6 3 5 0 -2
-8 -14 -16 -16 -33 -2 -24 5 3 10 1 10 -4 0 -6 -3 -11 -7 -11 -5 0 -8 -18 -9
-40 0 -25 3 -37 10 -33 6 3 5 0 -2 -8 -14 -16 -16 -33 -2 -24 5 3 10 1 10 -4
0 -6 -3 -11 -7 -11 -5 0 -8 -18 -9 -40 0 -25 3 -37 10 -33 6 3 5 0 -2 -8 -14
-16 -16 -33 -2 -24 6 3 10 1 10 -4 0 -6 -3 -11 -7 -11 -5 0 -8 -18 -9 -40 0
-25 3 -37 10 -33 6 3 5 0 -2 -8 -14 -16 -16 -33 -2 -24 5 3 10 1 10 -4 0 -6
-3 -11 -7 -11 -5 0 -8 -18 -9 -40 0 -25 3 -37 10 -33 6 3 5 0 -2 -8 -14 -16
-16 -33 -2 -24 5 3 10 1 10 -4 0 -6 -3 -11 -7 -11 -5 0 -8 -18 -9 -40 0 -25 3
-37 10 -33 6 3 5 0 -2 -8 -14 -16 -16 -33 -2 -24 5 3 10 1 10 -4 0 -6 -3 -11
-7 -11 -5 0 -8 -18 -9 -40 0 -25 3 -37 10 -33 6 3 5 0 -2 -8 -14 -16 -16 -33
-2 -24 5 3 10 1 10 -4 0 -6 -3 -11 -7 -11 -5 0 -8 -18 -9 -40 0 -25 3 -37 10
-33 6 3 5 0 -2 -8 -14 -16 -16 -33 -2 -24 6 3 10 1 10 -4 0 -6 -3 -11 -7 -11
-5 0 -8 -18 -9 -40 0 -25 3 -37 10 -33 6 3 5 0 -2 -8 -14 -16 -16 -33 -2 -24
6 3 10 1 10 -4 0 -6 -3 -11 -7 -11 -5 0 -8 -18 -9 -40 0 -25 3 -37 10 -33 6 3
5 0 -2 -8 -14 -16 -16 -33 -2 -24 5 3 10 1 10 -4 0 -6 -3 -11 -7 -11 -5 0 -8
-18 -9 -40 0 -25 3 -37 10 -33 6 3 5 0 -2 -8 -14 -16 -16 -33 -2 -24 5 3 10 1
10 -4 0 -6 -3 -11 -7 -11 -5 0 -8 -18 -9 -40 0 -25 3 -37 10 -33 6 3 5 0 -2
-8 -14 -16 -16 -33 -2 -24 6 3 10 1 10 -4 0 -6 -3 -11 -7 -11 -5 0 -8 -18 -9
-40 0 -25 3 -37 10 -33 6 3 5 0 -2 -8 -14 -16 -16 -33 -2 -24 6 3 10 1 10 -4
0 -6 -3 -11 -7 -11 -5 0 -8 -18 -9 -40 0 -25 3 -37 10 -33 6 4 5 0 -2 -9 -10
-12 -10 -18 -1 -23 8 -6 7 -10 -2 -16 -11 -7 -11 -9 1 -9 13 0 13 -2 1 -9 -12
-8 30 -7 87 0 4 1 9 1 12 -1 3 -1 18 -3 33 -5 25 -3 27 -2 15 13 -10 14 -9 14
9 -1 14 -12 23 -15 28 -7 3 5 11 8 16 4 16 -9 61 -15 56 -7 -7 10 34 9 51 -1
7 -4 12 -2 12 3 0 6 5 11 11 11 5 0 8 -4 5 -8 -7 -12 77 -9 86 3 5 6 11 6 19
-2 7 -7 19 -9 34 -3 13 5 26 6 29 3 11 -11 65 -13 71 -3 4 6 12 7 18 3 16 -10
67 -11 73 -1 3 4 13 5 22 0 20 -9 69 -8 79 1 3 4 12 2 20 -4 9 -9 13 -8 13 0
0 6 5 11 11 11 5 0 8 -4 5 -8 -7 -12 77 -9 86 3 5 6 11 6 19 -2 7 -7 19 -9 34
-3 13 5 26 6 29 3 11 -11 65 -13 71 -3 4 6 12 7 18 3 16 -10 67 -11 73 -1 3 4
13 5 22 0 20 -9 69 -8 79 1 3 4 12 2 20 -4 9 -9 13 -8 13 0 0 6 5 11 11 11 5
0 8 -4 5 -8 -7 -12 77 -9 86 3 5 6 11 6 19 -2 7 -7 19 -9 34 -3 13 5 26 6 29
3 11 -11 65 -13 71 -3 4 6 12 7 18 3 16 -10 67 -11 73 -1 3 4 13 5 22 0 20 -9
69 -8 79 1 3 4 12 2 20 -4 9 -9 13 -8 13 0 0 6 5 11 11 11 5 0 8 -4 5 -8 -7
-12 77 -9 86 3 5 6 11 6 19 -2 7 -7 19 -9 34 -3 13 5 26 6 29 3 11 -11 65 -13
71 -3 4 6 12 7 18 3 16 -10 67 -11 73 -1 3 4 13 5 22 0 20 -9 69 -8 79 1 3 4
12 2 20 -4 9 -9 13 -8 13 0 0 6 5 11 11 11 5 0 8 -4 5 -8 -7 -12 77 -9 86 3 5
6 11 6 19 -2 7 -7 19 -9 34 -3 13 5 26 6 29 3 11 -11 60 -12 72 -2 8 7 14 7
19 -1 4 -7 13 -7 27 1 15 8 19 8 14 0 -9 -14 7 -14 21 0 7 7 13 7 17 1 4 -7
17 -7 35 -2 16 4 32 6 35 2 3 -3 18 -7 32 -8 22 -2 24 -1 12 14 -10 14 -9 14
9 -1 14 -12 23 -15 28 -7 3 5 11 8 16 4 16 -9 61 -15 56 -7 -7 10 34 9 51 -1
7 -4 12 -2 12 3 0 6 5 11 11 11 5 0 8 -4 5 -8 -7 -12 77 -9 86 3 5 6 11 6 19
-2 7 -7 19 -9 34 -3 13 5 26 6 29 3 11 -11 65 -13 71 -3 4 6 12 7 18 3 16 -10
67 -11 73 -1 3 4 13 5 22 0 20 -9 69 -8 79 1 3 4 12 2 20 -4 9 -9 13 -8 13 0
0 6 5 11 11 11 5 0 8 -4 5 -8 -7 -12 77 -9 86 3 5 6 11 6 19 -2 7 -7 19 -9 34
-3 13 5 26 6 29 3 11 -11 60 -12 72 -2 8 7 14 7 19 -1 4 -7 12 -7 25 0 13 7
21 7 25 0 5 -7 11 -8 19 -1 6 5 17 6 24 2 13 -8 70 -6 79 3 4 3 12 1 20 -5 9
-9 13 -8 13 0 0 6 5 11 11 11 5 0 8 -4 5 -8 -7 -12 77 -9 86 3 5 6 11 6 19 -2
7 -7 19 -9 34 -3 13 5 26 6 29 3 11 -11 65 -13 71 -3 4 6 12 7 18 3 16 -10 67
-11 73 -1 3 4 13 5 22 0 20 -9 69 -8 79 1 3 4 12 2 20 -4 9 -9 13 -8 13 0 0 6
5 11 11 11 5 0 8 -4 5 -8 -7 -12 77 -9 86 3 5 6 11 6 19 -2 7 -7 19 -9 34 -3
13 5 26 6 29 3 11 -11 65 -13 71 -3 4 6 12 7 18 3 16 -10 67 -11 73 -1 3 4 13
5 22 0 20 -9 69 -8 79 1 3 4 12 2 20 -4 9 -9 13 -8 13 0 0 6 5 11 11 11 5 0 8
-4 5 -8 -7 -12 77 -9 86 3 5 6 11 6 19 -2 7 -7 19 -9 34 -3 13 5 26 6 29 3 11
-11 60 -12 72 -2 8 7 14 7 19 -1 4 -7 13 -7 27 1 15 8 19 8 14 0 -9 -14 7 -14
21 0 7 7 13 7 17 1 4 -7 17 -7 35 -2 16 4 32 6 35 2 3 -3 18 -7 32 -8 22 -2
24 -1 12 14 -10 14 -9 14 9 -1 14 -12 23 -15 28 -7 3 5 11 8 16 4 16 -9 61
-15 56 -7 -7 10 34 9 51 -1 7 -4 12 -2 12 3 0 6 5 11 11 11 5 0 8 -4 5 -8 -7
-12 77 -9 86 3 5 6 11 6 19 -2 7 -7 19 -9 34 -3 13 5 26 6 29 3 11 -11 65 -13
71 -3 4 6 12 7 18 3 16 -10 67 -11 73 -1 3 4 13 5 22 0 20 -9 69 -8 79 1 3 4
12 2 20 -4 9 -9 13 -8 13 0 0 6 5 11 11 11 5 0 8 -4 5 -8 -7 -12 77 -9 86 3 5
6 11 6 19 -2 7 -7 19 -9 34 -3 13 5 26 6 29 3 11 -11 65 -13 71 -3 4 6 12 7
18 3 16 -10 67 -11 73 -1 3 4 13 5 22 0 20 -9 69 -8 79 1 3 4 12 2 20 -4 9 -9
13 -8 13 0 0 6 5 11 11 11 5 0 8 -4 5 -8 -7 -12 77 -9 86 3 5 6 11 6 19 -2 7
-7 19 -9 34 -3 13 5 26 6 29 3 11 -11 65 -13 71 -3 4 6 12 7 18 3 16 -10 67
-11 73 -1 3 4 13 5 22 0 20 -9 69 -8 79 1 3 4 12 2 20 -4 9 -9 13 -8 13 0 0 6
5 11 11 11 5 0 8 -4 5 -8 -7 -12 77 -9 86 3 5 6 11 6 19 -2 7 -7 19 -9 34 -3
13 5 26 6 29 3 11 -11 65 -13 71 -3 4 6 12 7 18 3 16 -10 67 -11 73 -1 3 4 13
5 22 0 20 -9 69 -8 79 1 3 4 12 2 20 -4 9 -9 13 -8 13 0 0 6 5 11 11 11 5 0 8
-4 5 -8 -7 -12 77 -9 86 3 5 6 11 6 19 -2 7 -7 19 -9 34 -3 13 5 26 6 29 3 11
-11 60 -12 72 -2 8 7 14 7 19 -1 4 -7 13 -7 27 1 15 8 19 8 14 0 -9 -14 7 -14
21 0 7 7 13 7 17 1 4 -7 17 -7 35 -2 16 4 32 6 35 2 3 -3 18 -7 32 -8 22 -2
24 -1 12 14 -10 14 -9 14 9 -1 14 -12 23 -15 28 -7 3 5 11 8 16 4 16 -9 61
-15 56 -7 -7 10 34 9 51 -1 7 -4 12 -2 12 3 0 6 5 11 11 11 5 0 8 -4 5 -8 -7
-12 77 -9 86 3 5 6 11 6 19 -2 7 -7 19 -9 34 -3 13 5 26 6 29 3 11 -11 65 -13
71 -3 4 6 12 7 18 3 16 -10 67 -11 73 -1 3 4 13 5 22 0 20 -9 69 -8 79 1 3 4
12 2 20 -4 9 -9 13 -8 13 0 0 6 5 11 11 11 5 0 8 -4 5 -8 -7 -12 77 -9 86 3 5
6 11 6 19 -2 7 -7 19 -9 34 -3 13 5 26 6 29 3 11 -11 65 -13 71 -3 4 6 12 7
18 3 16 -10 67 -11 73 -1 3 4 13 5 22 0 20 -9 69 -8 79 1 3 4 12 2 20 -4 9 -9
13 -8 13 0 0 6 5 11 11 11 5 0 8 -4 5 -8 -7 -12 77 -9 86 3 5 6 11 6 19 -2 7
-7 19 -9 34 -3 13 5 26 6 29 3 11 -11 65 -13 71 -3 4 6 12 7 18 3 16 -10 67
-11 73 -1 3 4 13 5 22 0 20 -9 69 -8 79 1 3 4 12 2 20 -4 9 -9 13 -8 13 0 0 6
5 11 11 11 5 0 8 -4 5 -8 -7 -12 77 -9 86 3 5 6 11 6 19 -2 7 -7 19 -9 34 -3
13 5 26 6 29 3 11 -11 65 -13 71 -3 4 6 12 7 18 3 16 -10 67 -11 73 -1 3 4 13
5 22 0 20 -9 69 -8 79 1 3 4 12 2 20 -4 9 -9 13 -8 13 0 0 6 5 11 11 11 5 0 8
-4 5 -8 -7 -12 77 -9 86 3 5 6 11 6 19 -2 7 -7 19 -9 34 -3 13 5 26 6 29 3 11
-11 60 -12 72 -2 8 7 14 7 19 -1 4 -7 13 -7 27 1 15 8 19 8 14 0 -9 -14 7 -14
21 0 7 7 13 7 17 1 4 -7 17 -7 35 -2 16 4 32 6 35 2 3 -3 18 -7 32 -8 22 -2
24 -1 12 14 -10 14 -9 14 9 -1 14 -12 23 -15 28 -7 3 5 11 8 16 4 16 -9 61
-15 56 -7 -7 10 34 9 51 -1 7 -4 12 -2 12 3 0 6 5 11 11 11 5 0 8 -4 5 -8 -7
-12 77 -9 86 3 5 6 11 6 19 -2 7 -7 19 -9 34 -3 13 5 26 6 29 3 11 -11 65 -13
71 -3 4 6 12 7 18 3 16 -10 67 -11 73 -1 3 4 13 5 22 0 20 -9 69 -8 79 1 3 4
12 2 20 -4 9 -9 13 -8 13 0 0 6 5 11 11 11 5 0 8 -4 5 -8 -7 -12 77 -9 86 3 5
6 11 6 19 -2 7 -7 19 -9 34 -3 13 5 26 6 29 3 11 -11 65 -13 71 -3 4 6 12 7
18 3 16 -10 67 -11 73 -1 3 4 13 5 22 0 20 -9 69 -8 79 1 3 4 12 2 20 -4 9 -9
13 -8 13 0 0 6 5 11 11 11 5 0 8 -4 5 -8 -7 -12 77 -9 86 3 5 6 11 6 19 -2 7
-7 19 -9 34 -3 13 5 26 6 29 3 11 -11 65 -13 71 -3 4 6 12 7 18 3 16 -10 67
-11 73 -1 3 4 13 5 22 0 20 -9 69 -8 79 1 3 4 12 2 20 -4 9 -9 13 -8 13 0 0 6
5 11 11 11 5 0 8 -4 5 -8 -7 -12 77 -9 86 3 5 6 11 6 19 -2 7 -7 19 -9 34 -3
13 5 26 6 29 3 11 -11 65 -13 71 -3 4 6 12 7 18 3 16 -10 67 -11 73 -1 3 4 13
5 22 0 20 -9 69 -8 79 1 3 4 12 2 20 -4 9 -9 13 -8 13 0 0 6 5 11 11 11 5 0 8
-4 5 -8 -7 -12 77 -9 86 3 5 6 11 6 19 -2 7 -7 19 -9 34 -3 13 5 26 6 29 3 11
-11 60 -12 72 -2 8 7 14 7 19 -1 4 -7 13 -7 27 1 15 8 19 8 14 0 -9 -14 7 -14
21 0 7 7 13 7 17 1 4 -7 17 -7 35 -2 16 4 32 6 35 2 3 -3 18 -7 32 -8 22 -2
24 -1 12 14 -10 14 -9 14 9 -1 14 -12 23 -15 28 -7 3 5 11 8 16 4 16 -9 61
-15 56 -7 -7 10 34 9 51 -1 7 -4 12 -2 12 3 0 6 5 11 11 11 5 0 8 -4 5 -8 -7
-12 77 -9 86 3 5 6 11 6 19 -2 7 -7 19 -9 34 -3 13 5 26 6 29 3 11 -11 65 -13
71 -3 4 6 12 7 18 3 16 -10 67 -11 73 -1 3 4 13 5 22 0 20 -9 69 -8 79 1 3 4
12 2 20 -4 9 -9 13 -8 13 0 0 6 5 11 11 11 5 0 8 -4 5 -8 -7 -12 77 -9 86 3 5
6 11 6 19 -2 7 -7 19 -9 34 -3 13 5 26 6 29 3 11 -11 65 -13 71 -3 4 6 12 7
18 3 16 -10 67 -11 73 -1 3 4 13 5 22 0 20 -9 69 -8 79 1 3 4 12 2 20 -4 9 -9
13 -8 13 0 0 6 5 11 11 11 5 0 8 -4 5 -8 -7 -12 77 -9 86 3 5 6 11 6 19 -2 7
-7 19 -9 34 -3 13 5 26 6 29 3 11 -11 65 -13 71 -3 4 6 12 7 18 3 16 -10 67
-11 73 -1 3 4 13 5 22 0 20 -9 69 -8 79 1 3 4 12 2 20 -4 9 -9 13 -8 13 0 0 6
5 11 11 11 5 0 8 -4 5 -8 -7 -12 77 -9 86 3 5 6 11 6 19 -2 7 -7 19 -9 34 -3
13 5 26 6 29 3 11 -11 65 -13 71 -3 4 6 12 7 18 3 16 -10 67 -11 73 -1 3 4 13
5 22 0 20 -9 69 -8 79 1 3 4 12 2 20 -4 9 -9 13 -8 13 0 0 6 5 11 11 11 5 0 8
-4 5 -8 -7 -12 77 -9 86 3 5 6 11 6 19 -2 7 -7 19 -9 34 -3 13 5 26 6 29 3 11
-11 60 -12 72 -2 8 7 14 7 19 -1 4 -7 13 -7 27 1 15 8 19 8 14 0 -9 -14 7 -14
21 0 7 7 13 7 17 1 4 -7 17 -7 35 -2 16 4 32 6 35 2 3 -3 18 -7 32 -8 22 -2
24 -1 12 14 -10 14 -9 14 9 -1 14 -12 23 -15 28 -7 3 5 11 8 16 4 16 -9 61
-15 56 -7 -7 10 34 9 51 -1 7 -4 12 -2 12 3 0 6 5 11 11 11 5 0 8 -4 5 -8 -7
-12 77 -9 86 3 5 6 11 6 19 -2 7 -7 19 -9 34 -3 13 5 26 6 29 3 11 -11 65 -13
71 -3 4 6 12 7 18 3 16 -10 67 -11 73 -1 3 4 13 5 22 0 20 -9 69 -8 79 1 3 4
12 2 20 -4 9 -9 13 -8 13 0 0 6 5 11 11 11 5 0 8 -4 5 -8 -7 -12 77 -9 86 3 5
6 11 6 19 -2 7 -7 19 -9 34 -3 13 5 26 6 29 3 11 -11 65 -13 71 -3 4 6 12 7
18 3 16 -10 67 -11 73 -1 3 4 13 5 22 0 20 -9 69 -8 79 1 3 4 12 2 20 -4 9 -9
13 -8 13 0 0 6 5 11 11 11 5 0 8 -4 5 -8 -7 -12 77 -9 86 3 5 6 11 6 19 -2 7
-7 19 -9 34 -3 13 5 26 6 29 3 11 -11 65 -13 71 -3 4 6 12 7 18 3 16 -10 67
-11 73 -1 3 4 13 5 22 0 20 -9 69 -8 79 1 3 4 12 2 20 -4 9 -9 13 -8 13 0 0 6
5 11 11 11 5 0 8 -4 5 -8 -7 -12 77 -9 86 3 5 6 11 6 19 -2 7 -7 19 -9 34 -3
13 5 26 6 29 3 11 -11 65 -13 71 -3 4 6 12 7 18 3 16 -10 67 -11 73 -1 3 4 13
5 22 0 20 -9 69 -8 79 1 3 4 12 2 20 -4 9 -9 13 -8 13 0 0 6 5 11 11 11 5 0 8
-4 5 -8 -7 -12 77 -9 86 3 5 6 11 6 19 -2 7 -7 19 -9 34 -3 13 5 26 6 29 3 11
-11 60 -12 72 -2 8 7 14 7 19 -1 4 -7 13 -7 27 1 15 8 19 8 14 0 -9 -14 7 -14
21 0 7 7 13 7 17 1 4 -7 17 -7 35 -2 16 4 32 6 35 2 3 -3 18 -7 32 -8 22 -2
24 -1 12 14 -10 14 -9 14 9 -1 14 -12 23 -15 28 -7 3 5 11 8 16 4 16 -9 61
-15 56 -7 -7 10 34 9 51 -1 7 -4 12 -2 12 3 0 6 5 11 11 11 5 0 8 -4 5 -8 -7
-12 77 -9 86 3 5 6 11 6 19 -2 7 -7 19 -9 34 -3 13 5 26 6 29 3 11 -11 65 -13
71 -3 4 6 12 7 18 3 16 -10 67 -11 73 -1 3 4 13 5 22 0 20 -9 69 -8 79 1 3 4
12 2 20 -4 9 -9 13 -8 13 0 0 6 5 11 11 11 5 0 8 -4 5 -8 -7 -12 77 -9 86 3 5
6 11 6 19 -2 7 -7 19 -9 34 -3 13 5 26 6 29 2 8 -7 76 -10 77 -2 7 30 2 357
-5 353 -5 -4 -6 0 -1 8 12 18 15 259 4 259 -5 0 -9 5 -9 11 0 5 4 8 8 5 4 -2
8 46 7 109 0 62 -4 111 -8 108 -5 -3 -3 5 5 16 11 18 11 23 -1 30 -7 5 -9 11
-4 14 11 7 10 167 -1 186 -6 9 -5 12 1 8 5 -4 10 12 10 38 1 29 -3 43 -10 38
-6 -4 -7 -1 -1 8 13 20 14 100 1 92 -6 -4 -7 -1 -1 8 13 22 15 141 2 133 -7
-5 -8 -2 -2 7 13 22 14 43 1 51 -7 4 -7 8 -2 8 6 0 12 14 13 31 2 21 -1 28 -9
23 -8 -5 -9 -3 -3 7 13 20 12 209 -1 209 -6 0 -7 3 0 8 15 11 18 75 4 66 -8
-5 -9 -3 -3 7 11 18 13 299 1 292 -5 -3 -3 5 5 16 11 18 11 23 -1 30 -7 5 -9
11 -4 14 11 7 10 167 -1 186 -6 9 -5 12 1 8 5 -4 10 12 10 38 1 29 -3 43 -10
38 -6 -4 -7 -1 -1 8 13 20 14 100 1 92 -6 -4 -7 -1 -1 8 11 19 13 169 1 162
-5 -3 -4 3 2 14 7 14 7 24 -2 33 -7 7 -7 10 -1 7 7 -4 11 10 11 38 1 29 -3 43
-10 38 -6 -4 -7 -1 -1 8 11 19 13 189 1 182 -5 -3 -4 3 2 14 7 14 7 24 -2 33
-7 7 -7 10 -1 7 7 -4 11 10 11 38 1 29 -3 43 -10 38 -6 -4 -7 -1 -1 8 11 19
13 189 1 182 -5 -3 -4 3 2 14 7 14 7 24 -2 33 -7 7 -7 10 -1 7 7 -4 11 10 11
38 1 29 -3 43 -10 38 -6 -4 -7 -1 -1 8 11 19 13 189 1 182 -5 -3 -4 3 2 14 7
14 7 24 -2 33 -7 7 -7 10 -1 7 7 -4 11 10 11 38 1 29 -3 43 -10 38 -6 -4 -7
-1 -1 8 11 18 12 309 1 302 -5 -3 -3 5 5 16 11 18 11 23 -1 30 -9 6 -10 10 -2
16 9 5 9 11 -1 23 -7 9 -8 13 -2 9 7 -4 10 19 10 73 0 43 -4 76 -9 73 -5 -3
-3 5 5 16 11 18 11 23 -1 30 -7 5 -9 11 -4 14 11 7 10 167 -1 186 -6 9 -5 12
1 8 5 -4 10 12 10 38 1 29 -3 43 -10 38 -6 -4 -7 -1 -1 8 13 20 14 100 1 92
-6 -4 -7 -1 -1 8 11 18 12 289 1 282 -5 -3 -3 5 5 16 11 18 11 23 -1 30 -9 6
-10 10 -2 16 9 5 9 11 -1 23 -7 9 -8 13 -2 9 7 -4 10 19 10 73 0 43 -4 76 -9
73 -5 -3 -3 5 5 16 11 18 11 23 -1 30 -7 5 -9 11 -4 14 11 7 10 167 -1 186 -6
9 -5 12 1 8 5 -4 10 12 10 38 1 29 -3 43 -10 38 -6 -4 -7 -1 -1 8 13 20 14
100 1 92 -6 -4 -7 -1 -1 8 11 18 12 289 1 282 -5 -3 -3 5 5 16 11 18 11 23 -1
30 -9 6 -10 10 -2 16 9 5 9 11 -1 23 -7 9 -8 13 -2 9 7 -4 10 19 10 73 0 43
-4 76 -9 73 -5 -3 -3 5 5 17 10 18 10 24 0 27 -6 3 -9 10 -5 16 11 17 11 227
0 220 -5 -3 -4 3 2 14 7 14 7 24 -2 33 -7 7 -7 10 -1 7 7 -4 11 10 11 38 1 29
-3 43 -10 38 -6 -4 -7 -1 -1 8 11 19 13 189 1 182 -5 -3 -4 3 2 14 7 14 7 24
-2 33 -7 7 -7 10 -1 7 7 -4 11 10 11 38 1 29 -3 43 -10 38 -6 -4 -7 -1 -1 8
11 19 13 189 1 182 -5 -3 -4 3 2 14 7 14 7 24 -2 33 -7 7 -7 10 -1 7 7 -4 11
10 11 38 1 29 -3 43 -10 38 -6 -4 -7 -1 -1 8 11 19 13 189 1 182 -5 -3 -4 3 2
14 7 14 7 24 -2 33 -7 7 -7 10 -1 7 7 -4 11 10 11 38 1 31 -3 43 -11 38 -8 -5
-8 -3 0 8 12 17 12 128 0 148 -6 9 -5 12 1 8 5 -4 10 12 10 38 1 29 -3 43 -10
38 -6 -4 -7 -1 -1 8 13 20 14 100 1 92 -6 -4 -7 -1 -1 8 11 18 12 289 1 282
-5 -3 -3 5 5 16 11 18 11 23 -1 30 -9 6 -10 10 -2 16 9 5 9 11 -1 23 -7 9 -8
13 -2 9 7 -4 10 19 10 73 0 43 -4 76 -9 73 -5 -3 -3 5 5 16 11 18 11 23 -1 30
-7 5 -9 11 -4 14 11 7 10 167 -1 186 -6 9 -5 12 1 8 5 -4 10 12 10 38 1 29 -3
43 -10 38 -6 -4 -7 -1 -1 8 13 20 14 100 1 92 -6 -4 -7 -1 -1 8 13 22 15 141
2 133 -7 -5 -8 -2 -2 7 13 22 14 43 1 51 -7 4 -7 8 -2 8 6 0 12 14 13 31 2 21
-1 28 -9 23 -8 -5 -9 -3 -3 7 13 20 12 209 -1 209 -6 0 -7 3 0 8 15 11 18 75
4 66 -8 -5 -9 -3 -3 7 11 18 13 299 1 292 -5 -3 -3 5 5 16 11 18 11 23 -1 30
-7 5 -9 11 -4 14 11 7 10 167 -1 186 -6 9 -5 12 1 8 5 -4 10 12 10 38 1 29 -3
43 -10 38 -6 -4 -7 -1 -1 8 13 20 14 100 1 92 -6 -4 -7 -1 -1 8 11 19 13 169
1 162 -5 -3 -4 3 2 14 7 14 7 24 -2 33 -7 7 -7 10 -1 7 7 -4 11 10 11 38 1 29
-3 43 -10 38 -6 -4 -7 -1 -1 8 11 19 13 189 1 182 -5 -3 -4 3 2 14 7 14 7 24
-2 33 -7 7 -7 10 -1 7 7 -4 11 10 11 38 1 29 -3 43 -10 38 -6 -4 -7 -1 -1 8
11 19 13 189 1 182 -5 -3 -4 3 2 14 7 14 7 24 -2 33 -7 7 -7 10 -1 7 7 -4 11
10 11 38 1 29 -3 43 -10 38 -6 -4 -7 -1 -1 8 11 19 13 189 1 182 -5 -3 -4 3 2
14 7 14 7 24 -2 33 -7 7 -7 10 -1 7 7 -4 11 10 11 38 1 29 -3 43 -10 38 -6 -4
-7 -1 -1 8 11 18 12 309 1 302 -5 -3 -3 5 5 16 11 18 11 23 -1 30 -9 6 -10 10
-2 16 9 5 9 11 -1 23 -7 9 -8 13 -2 9 7 -4 10 19 10 73 0 43 -4 76 -9 73 -5
-3 -3 5 5 16 11 18 11 23 -1 30 -7 5 -9 11 -4 14 11 7 10 167 -1 186 -6 9 -5
12 1 8 5 -4 10 12 10 38 1 29 -3 43 -10 38 -6 -4 -7 -1 -1 8 13 20 14 100 1
92 -6 -4 -7 -1 -1 8 11 18 12 289 1 282 -5 -3 -3 5 5 16 11 18 11 23 -1 30 -9
6 -10 10 -2 16 9 5 9 11 -1 23 -7 9 -8 13 -2 9 7 -4 10 19 10 73 0 43 -4 76
-9 73 -5 -3 -3 5 5 16 11 18 11 23 -1 30 -7 5 -9 11 -4 14 11 7 10 167 -1 186
-6 9 -5 12 1 8 5 -4 10 12 10 38 1 29 -3 43 -10 38 -6 -4 -7 -1 -1 8 13 20 14
100 1 92 -6 -4 -7 -1 -1 8 11 18 12 289 1 282 -5 -3 -3 5 5 16 11 18 11 23 -1
30 -9 6 -10 10 -2 16 9 5 9 11 -1 23 -7 9 -8 13 -2 9 7 -4 10 19 10 73 0 43
-4 76 -9 73 -5 -3 -3 5 5 17 10 18 10 24 0 27 -6 3 -9 10 -5 16 11 17 11 227
0 220 -5 -3 -4 3 2 14 7 14 7 24 -2 33 -7 7 -7 10 -1 7 7 -4 11 10 11 38 1 29
-3 43 -10 38 -6 -4 -7 -1 -1 8 11 19 13 189 1 182 -5 -3 -4 3 2 14 7 14 7 24
-2 33 -7 7 -7 10 -1 7 7 -4 11 10 11 38 1 29 -3 43 -10 38 -6 -4 -7 -1 -1 8
11 19 13 189 1 182 -5 -3 -4 3 2 14 7 14 7 24 -2 33 -7 7 -7 10 -1 7 7 -4 11
10 11 38 1 29 -3 43 -10 38 -6 -4 -7 -1 -1 8 11 19 13 189 1 182 -5 -3 -4 3 2
14 7 14 7 24 -2 33 -7 7 -7 10 -1 7 7 -4 11 10 11 38 1 31 -3 43 -11 38 -8 -5
-8 -3 0 8 12 17 12 128 0 148 -6 9 -5 12 1 8 5 -4 10 12 10 38 1 29 -3 43 -10
38 -6 -4 -7 -1 -1 8 13 20 14 100 1 92 -6 -4 -7 -1 -1 8 11 18 12 289 1 282
-5 -3 -3 5 5 16 11 18 11 23 -1 30 -9 6 -10 10 -2 16 9 5 9 11 -1 23 -7 9 -8
13 -2 9 7 -4 10 19 10 73 0 43 -4 76 -9 73 -5 -3 -3 5 5 16 11 18 11 23 -1 30
-7 5 -9 11 -4 14 11 7 10 167 -1 186 -6 9 -5 12 1 8 5 -4 10 12 10 38 1 29 -3
43 -10 38 -6 -4 -7 -1 -1 8 13 20 14 100 1 92 -6 -4 -7 -1 -1 8 13 22 15 141
2 133 -7 -5 -8 -2 -2 7 13 22 14 43 1 51 -7 4 -7 8 -2 8 6 0 12 14 13 31 2 21
-1 28 -9 23 -8 -5 -9 -3 -3 7 5 8 9 47 9 87 l0 72 -9492 0 c-5847 0 -9494 -4
-9498 -9z"/>
</g>
</svg>
